<svg xmlns="http://www.w3.org/2000/svg" width="220" height="41" viewBox="0 0 220 41">
    <g fill="none" fill-rule="evenodd">
        <path fill="#FFF" d="M0 0v40h8.2V8h8.2v32h8.2V8h8.2v32H41V0z"/>
        <g fill="#35343D">
            <path d="M49.062 39.834c-.626 0-.865-.261-.865-.87V20.962c0-.61.239-.871.865-.871h10.202c.627 0 .895.203.895.812v2.265c0 .61-.268.842-.895.842H53.12v3.774h5.668c.627 0 .895.204.895.814v2.12c0 .608-.268.84-.895.84h-5.668v4.356h6.444c.626 0 .895.203.895.813v2.264c0 .61-.269.842-.895.842H49.062zM78.897 20.092c.626 0 .895.203.895.812v2.265c0 .61-.269.843-.895.843h-3.819v14.95c0 .611-.208.872-.834.872H71.02c-.626 0-.864-.26-.864-.871V24.012h-3.819c-.626 0-.895-.233-.895-.843v-2.265c0-.609.269-.812.895-.812h12.559zM90.49 24.011v4.617h2.386c1.462 0 2.715-.552 2.715-1.888v-.842c0-1.335-1.253-1.887-2.715-1.887h-2.387zm6.861 7.81l2.923 7.142c.21.523-.18.871-.835.871h-3.222c-.566 0-.687-.465-.865-.87l-2.625-6.417H90.49v6.416c0 .61-.209.871-.834.871h-3.223c-.627 0-.864-.261-.864-.87V20.962c0-.61.237-.872.864-.872h6.444c5.608 0 7.577 2.469 7.577 4.965v2.526c0 1.655-.865 3.31-3.102 4.24zM116.534 18.147c-.178.261-.537.58-1.163.58h-2.356c-.537 0-.746-.232-.478-.841l1.193-2.672c.24-.522.597-.87 1.223-.87h3.193c.625 0 .805.377.446.87l-2.058 2.933zm.836 7.519c0-1.336-1.253-1.887-2.714-1.887-1.463 0-2.686.551-2.686 1.887v8.594c0 1.335 1.223 1.887 2.686 1.887 1.46 0 2.714-.552 2.714-1.887v-8.594zm-10.322-.842c0-2.497 1.999-4.965 7.608-4.965 5.608 0 7.636 2.468 7.636 4.965v10.278c0 2.496-2.028 4.964-7.636 4.964-5.61 0-7.608-2.468-7.608-4.964V24.824zM133.925 24.011v5.197h2.387c1.46 0 2.714-.551 2.714-1.887v-1.423c0-1.335-1.253-1.887-2.714-1.887h-2.387zm0 9.116v5.836c0 .61-.209.871-.835.871h-3.222c-.626 0-.865-.261-.865-.87V20.962c0-.61.24-.872.865-.872h6.444c5.609 0 7.577 2.469 7.577 4.965v3.107c0 2.496-1.968 4.964-7.577 4.964h-2.387zM159 25.666c0-1.336-1.253-1.887-2.714-1.887-1.462 0-2.685.551-2.685 1.887v8.594c0 1.335 1.223 1.887 2.685 1.887 1.46 0 2.714-.552 2.714-1.887v-8.594zm-10.322-.842c0-2.496 2-4.964 7.608-4.964s7.637 2.468 7.637 4.964v10.278c0 2.496-2.029 4.964-7.637 4.964-5.609 0-7.608-2.468-7.608-4.964V24.824zM174.619 35.915h5.848c.625 0 .894.203.894.813v2.264c0 .61-.269.842-.894.842h-10.023c-.539 0-.746-.29-.746-.871v-18c0-.61.238-.871.865-.871h3.222c.625 0 .834.261.834.87v14.953zM187.798 39.834c-.626 0-.865-.261-.865-.87V20.962c0-.61.239-.871.865-.871H198c.627 0 .895.203.895.812v2.265c0 .61-.268.842-.895.842h-6.146v3.774h5.669c.626 0 .895.204.895.814v2.12c0 .608-.269.84-.895.84h-5.669v4.356h6.445c.626 0 .895.203.895.813v2.264c0 .61-.269.842-.895.842h-10.5zM214.155 25.463c0-1.336-.954-1.83-2.326-1.83-1.373 0-2.358.494-2.358 1.83v.29c0 .784.627 1.132.955 1.249l5.012 1.655c2.207.725 3.729 2.235 3.729 4.384v2.061c0 2.497-1.82 4.965-7.428 4.965-5.609 0-7.488-2.468-7.488-4.965v-1.946c0-.609.238-.87.865-.87h3.103c.626 0 .834.261.834.87v1.307c0 1.336 1.163 1.83 2.626 1.83 1.461 0 2.655-.494 2.655-1.83v-.58c0-1.046-1.432-1.54-2.565-1.946l-4.296-1.568c-1.521-.551-2.775-2.177-2.775-3.86v-1.685c0-2.496 1.55-4.964 7.07-4.964 5.52 0 7.19 2.468 7.19 4.964v1.074c0 .61-.239.872-.865.872h-3.103c-.627 0-.835-.262-.835-.872v-.435z"/>
        </g>
    </g>
</svg>
